<?xml version="1.0" standalone="no"?>
<!DOCTYPE svg PUBLIC "-//W3C//DTD SVG 20010904//EN"
 "http://www.w3.org/TR/2001/REC-SVG-20010904/DTD/svg10.dtd">
<svg version="1.0" xmlns="http://www.w3.org/2000/svg"
 width="50.000000pt" height="50.000000pt" viewBox="0 0 50.000000 50.000000"
 preserveAspectRatio="xMidYMid meet">

<g transform="translate(0.000000,50.000000) scale(0.100000,-0.100000)"
fill="#000000" stroke="none">
<path d="M24 447 c-2 -7 -3 -80 -2 -162 l3 -150 68 -3 c75 -3 89 8 69 54 -10
21 -18 24 -67 24 l-55 0 0 115 0 115 210 0 210 0 0 -115 0 -115 -55 0 c-49 0
-57 -3 -67 -24 -20 -46 -6 -57 69 -54 l68 3 0 160 0 160 -223 3 c-176 2 -224
0 -228 -11z m406 -277 c0 -5 -4 -10 -10 -10 -5 0 -10 5 -10 10 0 6 5 10 10 10
6 0 10 -4 10 -10z"/>
<path d="M214 410 c-12 -4 -31 -21 -43 -35 -26 -34 -26 -113 1 -167 28 -58 24
-75 -24 -99 -47 -23 -78 -48 -78 -61 0 -4 81 -8 180 -8 99 0 180 4 180 8 0 13
-31 38 -77 61 -49 24 -54 45 -25 101 10 19 19 59 20 88 2 44 -2 56 -22 75 -56
51 -68 55 -112 37z"/>
</g>
</svg>
